{
	"asset":{
		"generator":"Khronos glTF Blender I/O v4.1.50",
		"version":"2.0"
	},
	"extensionsUsed":[
		"KHR_materials_specular",
		"KHR_materials_ior"
	],
	"scene":0,
	"scenes":[
		{
			"name":"Scene",
			"nodes":[
				14,
				15
			]
		}
	],
	"nodes":[
		{
			"mesh":0,
			"name":"Object_13",
			"translation":[
				0,
				0,
				-7.62939453125e-06
			]
		},
		{
			"mesh":1,
			"name":"Object_14",
			"translation":[
				0,
				0,
				-7.62939453125e-06
			]
		},
		{
			"children":[
				0,
				1
			],
			"name":"Cube.001_5",
			"scale":[
				0.06685745716094971,
				0.03149764612317085,
				0.017820734530687332
			],
			"translation":[
				0.3085514008998871,
				-0.35027748346328735,
				-1.6364245414733887
			]
		},
		{
			"mesh":2,
			"name":"Object_4"
		},
		{
			"mesh":3,
			"name":"Object_5"
		},
		{
			"mesh":4,
			"name":"Object_6"
		},
		{
			"mesh":5,
			"name":"Object_7"
		},
		{
			"children":[
				3,
				4,
				5,
				6
			],
			"name":"Cube_0",
			"scale":[
				1.836211919784546,
				0.6538053750991821,
				1.7313532829284668
			],
			"translation":[
				0,
				-0.09156240522861481,
				0
			]
		},
		{
			"mesh":6,
			"name":"Object_10"
		},
		{
			"mesh":7,
			"name":"Object_11"
		},
		{
			"mesh":8,
			"name":"Object_9"
		},
		{
			"children":[
				8,
				9,
				10
			],
			"name":"Keyboard_4",
			"rotation":[
				0,
				-0.7071068286895752,
				0,
				0.7071067094802856
			],
			"scale":[
				1.7211252450942993,
				1.5340811014175415,
				1.4944233894348145
			],
			"translation":[
				0.062020935118198395,
				1.8650987148284912,
				0.32944759726524353
			]
		},
		{
			"children":[
				2,
				7,
				11
			],
			"name":"GLTF_SceneRootNode",
			"rotation":[
				0.70710688829422,
				0,
				0,
				0.7071066498756409
			]
		},
		{
			"children":[
				12
			],
			"name":"root"
		},
		{
			"children":[
				13
			],
			"name":"Sketchfab_model",
			"rotation":[
				-0.70710688829422,
				0,
				0,
				0.7071066498756409
			]
		},
		{
			"mesh":9,
			"name":"Cube"
		}
	],
	"materials":[
		{
			"doubleSided":true,
			"name":"Material.004",
			"pbrMetallicRoughness":{
				"baseColorFactor":[
					0.2882930040359497,
					0.2882930040359497,
					0.2882930040359497,
					1
				],
				"metallicFactor":0,
				"roughnessFactor":0.5
			}
		},
		{
			"doubleSided":true,
			"name":"Material.005",
			"pbrMetallicRoughness":{
				"baseColorFactor":[
					0.016950199380517006,
					0.010958200320601463,
					0.0577968992292881,
					1
				],
				"metallicFactor":0,
				"roughnessFactor":0.5
			}
		},
		{
			"doubleSided":true,
			"name":"Material.001",
			"pbrMetallicRoughness":{
				"baseColorTexture":{
					"index":0
				},
				"metallicFactor":0,
				"roughnessFactor":0.5
			}
		},
		{
			"doubleSided":true,
			"name":"Material.002",
			"pbrMetallicRoughness":{
				"baseColorFactor":[
					0.06071940064430237,
					0.06071940064430237,
					0.06071940064430237,
					1
				],
				"metallicFactor":0,
				"roughnessFactor":0.8858270049095154
			}
		},
		{
			"doubleSided":true,
			"name":"Material.003",
			"pbrMetallicRoughness":{
				"baseColorFactor":[
					0.17416100203990936,
					0.17416100203990936,
					0.17416100203990936,
					1
				],
				"metallicFactor":0,
				"roughnessFactor":0.5
			}
		},
		{
			"doubleSided":true,
			"name":"BACK",
			"pbrMetallicRoughness":{
				"baseColorTexture":{
					"index":1
				},
				"metallicFactor":0,
				"roughnessFactor":0.5
			}
		},
		{
			"doubleSided":true,
			"extensions":{
				"KHR_materials_specular":{
					"specularFactor":0
				},
				"KHR_materials_ior":{
					"ior":0
				}
			},
			"name":"Screen_Surface",
			"pbrMetallicRoughness":{
				"baseColorFactor":[
					0,
					0,
					0,
					1
				],
				"metallicFactor":0,
				"roughnessFactor":0
			}
		},
		{
			"doubleSided":true,
			"name":"Win_98_Screen",
			"pbrMetallicRoughness":{
				"metallicFactor":0,
				"roughnessFactor":0.4000000059604645
			}
		},
		{
			"doubleSided":true,
			"name":"Monitor_White_Plastic",
			"pbrMetallicRoughness":{
				"baseColorTexture":{
					"index":2
				},
				"metallicFactor":0
			}
		},
		{
			"doubleSided":true,
			"name":"Material",
			"pbrMetallicRoughness":{
				"baseColorFactor":[
					0.800000011920929,
					0.800000011920929,
					0.800000011920929,
					1
				],
				"metallicFactor":0,
				"roughnessFactor":0.5
			}
		}
	],
	"meshes":[
		{
			"name":"Object_7",
			"primitives":[
				{
					"attributes":{
						"POSITION":0,
						"NORMAL":1,
						"TEXCOORD_0":2
					},
					"indices":3,
					"material":0
				}
			]
		},
		{
			"name":"Object_8",
			"primitives":[
				{
					"attributes":{
						"POSITION":4,
						"NORMAL":5,
						"TEXCOORD_0":6
					},
					"indices":7,
					"material":1
				}
			]
		},
		{
			"name":"Object_0",
			"primitives":[
				{
					"attributes":{
						"POSITION":8,
						"NORMAL":9,
						"TEXCOORD_0":10
					},
					"indices":11,
					"material":2
				}
			]
		},
		{
			"name":"Object_1",
			"primitives":[
				{
					"attributes":{
						"POSITION":12,
						"NORMAL":13,
						"TEXCOORD_0":14
					},
					"indices":15,
					"material":3
				}
			]
		},
		{
			"name":"Object_2",
			"primitives":[
				{
					"attributes":{
						"POSITION":16,
						"NORMAL":17,
						"TEXCOORD_0":18
					},
					"indices":19,
					"material":4
				}
			]
		},
		{
			"name":"Object_3",
			"primitives":[
				{
					"attributes":{
						"POSITION":20,
						"NORMAL":21,
						"TEXCOORD_0":22
					},
					"indices":23,
					"material":5
				}
			]
		},
		{
			"name":"Object_5",
			"primitives":[
				{
					"attributes":{
						"POSITION":24,
						"NORMAL":25,
						"TEXCOORD_0":26,
						"TEXCOORD_1":27,
						"TEXCOORD_2":28
					},
					"indices":29,
					"material":6
				}
			]
		},
		{
			"name":"Object_6",
			"primitives":[
				{
					"attributes":{
						"POSITION":30,
						"NORMAL":31,
						"TEXCOORD_0":32,
						"TEXCOORD_1":33,
						"TEXCOORD_2":34
					},
					"indices":29,
					"material":7
				}
			]
		},
		{
			"name":"Object_4",
			"primitives":[
				{
					"attributes":{
						"POSITION":35,
						"NORMAL":36,
						"TEXCOORD_0":37,
						"TEXCOORD_1":38,
						"TEXCOORD_2":39
					},
					"indices":40,
					"material":8
				}
			]
		},
		{
			"name":"Cube",
			"primitives":[
				{
					"attributes":{
						"POSITION":41,
						"NORMAL":42,
						"TEXCOORD_0":43
					},
					"indices":44,
					"material":9
				}
			]
		}
	],
	"textures":[
		{
			"sampler":0,
			"source":0
		},
		{
			"sampler":0,
			"source":1
		},
		{
			"sampler":0,
			"source":2
		}
	],
	"images":[
		{
			"mimeType":"image/png",
			"name":"Material_baseColor",
			"uri":"Material_baseColor.png"
		},
		{
			"mimeType":"image/jpeg",
			"name":"BACK_baseColor",
			"uri":"BACK_baseColor.jpg"
		},
		{
			"mimeType":"image/png",
			"name":"Monitor_White_Plastic_baseColor",
			"uri":"Monitor_White_Plastic_baseColor.png"
		}
	],
	"accessors":[
		{
			"bufferView":0,
			"componentType":5126,
			"count":148,
			"max":[
				4.590720176696777,
				56.263877868652344,
				22.073963165283203
			],
			"min":[
				-0.3437097668647766,
				-4.351245880126953,
				-13.684526443481445
			],
			"type":"VEC3"
		},
		{
			"bufferView":1,
			"componentType":5126,
			"count":148,
			"type":"VEC3"
		},
		{
			"bufferView":2,
			"componentType":5126,
			"count":148,
			"type":"VEC2"
		},
		{
			"bufferView":3,
			"componentType":5123,
			"count":222,
			"type":"SCALAR"
		},
		{
			"bufferView":4,
			"componentType":5126,
			"count":32,
			"max":[
				1,
				-2.9068853855133057,
				1
			],
			"min":[
				-1,
				-4.906885147094727,
				-1
			],
			"type":"VEC3"
		},
		{
			"bufferView":5,
			"componentType":5126,
			"count":32,
			"type":"VEC3"
		},
		{
			"bufferView":6,
			"componentType":5126,
			"count":32,
			"type":"VEC2"
		},
		{
			"bufferView":7,
			"componentType":5123,
			"count":54,
			"type":"SCALAR"
		},
		{
			"bufferView":8,
			"componentType":5126,
			"count":879,
			"max":[
				1.0000004768371582,
				1,
				1.0875457525253296
			],
			"min":[
				-1.0000004768371582,
				-1,
				-1.0000004768371582
			],
			"type":"VEC3"
		},
		{
			"bufferView":9,
			"componentType":5126,
			"count":879,
			"type":"VEC3"
		},
		{
			"bufferView":10,
			"componentType":5126,
			"count":879,
			"type":"VEC2"
		},
		{
			"bufferView":11,
			"componentType":5123,
			"count":2424,
			"type":"SCALAR"
		},
		{
			"bufferView":12,
			"componentType":5126,
			"count":50,
			"max":[
				0.8409671783447266,
				0.6846415996551514,
				1.0306984186172485
			],
			"min":[
				-0.4891662895679474,
				-0.09300690144300461,
				0.9775549173355103
			],
			"type":"VEC3"
		},
		{
			"bufferView":13,
			"componentType":5126,
			"count":50,
			"type":"VEC3"
		},
		{
			"bufferView":14,
			"componentType":5126,
			"count":50,
			"type":"VEC2"
		},
		{
			"bufferView":15,
			"componentType":5123,
			"count":84,
			"type":"SCALAR"
		},
		{
			"bufferView":16,
			"componentType":5126,
			"count":17,
			"max":[
				0,
				-0.5517576336860657,
				1.0875457525253296
			],
			"min":[
				-1.0000004768371582,
				-0.5517576336860657,
				0.9991658926010132
			],
			"type":"VEC3"
		},
		{
			"bufferView":17,
			"componentType":5126,
			"count":17,
			"type":"VEC3"
		},
		{
			"bufferView":18,
			"componentType":5126,
			"count":17,
			"type":"VEC2"
		},
		{
			"bufferView":19,
			"componentType":5123,
			"count":39,
			"type":"SCALAR"
		},
		{
			"bufferView":20,
			"componentType":5126,
			"count":102,
			"max":[
				0.9125031232833862,
				0.9131696224212646,
				-0.9362054467201233
			],
			"min":[
				-0.9245750308036804,
				-0.929664671421051,
				-0.9590522050857544
			],
			"type":"VEC3"
		},
		{
			"bufferView":21,
			"componentType":5126,
			"count":102,
			"type":"VEC3"
		},
		{
			"bufferView":22,
			"componentType":5126,
			"count":102,
			"type":"VEC2"
		},
		{
			"bufferView":23,
			"componentType":5123,
			"count":261,
			"type":"SCALAR"
		},
		{
			"bufferView":24,
			"componentType":5126,
			"count":81,
			"max":[
				0.8808460831642151,
				1.1260470151901245,
				0.8743783235549927
			],
			"min":[
				0.7739382982254028,
				-0.2805912494659424,
				-0.7738729119300842
			],
			"type":"VEC3"
		},
		{
			"bufferView":25,
			"componentType":5126,
			"count":81,
			"type":"VEC3"
		},
		{
			"bufferView":26,
			"componentType":5126,
			"count":81,
			"type":"VEC2"
		},
		{
			"bufferView":27,
			"componentType":5126,
			"count":81,
			"type":"VEC2"
		},
		{
			"bufferView":28,
			"componentType":5126,
			"count":81,
			"type":"VEC2"
		},
		{
			"bufferView":29,
			"componentType":5123,
			"count":384,
			"type":"SCALAR"
		},
		{
			"bufferView":30,
			"componentType":5126,
			"count":81,
			"max":[
				0.8746516704559326,
				1.1092296838760376,
				0.8559280037879944
			],
			"min":[
				0.7700949907302856,
				-0.2659187316894531,
				-0.7554225921630859
			],
			"type":"VEC3"
		},
		{
			"bufferView":31,
			"componentType":5126,
			"count":81,
			"type":"VEC3"
		},
		{
			"bufferView":32,
			"componentType":5126,
			"count":81,
			"type":"VEC2"
		},
		{
			"bufferView":33,
			"componentType":5126,
			"count":81,
			"type":"VEC2"
		},
		{
			"bufferView":34,
			"componentType":5126,
			"count":81,
			"type":"VEC2"
		},
		{
			"bufferView":35,
			"componentType":5126,
			"count":4156,
			"max":[
				0.8808794617652893,
				1.382412314414978,
				1.1743896007537842
			],
			"min":[
				-1.3651313781738281,
				-0.8338229060173035,
				-1.068955898284912
			],
			"type":"VEC3"
		},
		{
			"bufferView":36,
			"componentType":5126,
			"count":4156,
			"type":"VEC3"
		},
		{
			"bufferView":37,
			"componentType":5126,
			"count":4156,
			"type":"VEC2"
		},
		{
			"bufferView":38,
			"componentType":5126,
			"count":4156,
			"type":"VEC2"
		},
		{
			"bufferView":39,
			"componentType":5126,
			"count":4156,
			"type":"VEC2"
		},
		{
			"bufferView":40,
			"componentType":5123,
			"count":15402,
			"type":"SCALAR"
		},
		{
			"bufferView":41,
			"componentType":5126,
			"count":24,
			"max":[
				1,
				1,
				1
			],
			"min":[
				-1,
				-1,
				-1
			],
			"type":"VEC3"
		},
		{
			"bufferView":42,
			"componentType":5126,
			"count":24,
			"type":"VEC3"
		},
		{
			"bufferView":43,
			"componentType":5126,
			"count":24,
			"type":"VEC2"
		},
		{
			"bufferView":44,
			"componentType":5123,
			"count":36,
			"type":"SCALAR"
		}
	],
	"bufferViews":[
		{
			"buffer":0,
			"byteLength":1776,
			"byteOffset":0,
			"target":34962
		},
		{
			"buffer":0,
			"byteLength":1776,
			"byteOffset":1776,
			"target":34962
		},
		{
			"buffer":0,
			"byteLength":1184,
			"byteOffset":3552,
			"target":34962
		},
		{
			"buffer":0,
			"byteLength":444,
			"byteOffset":4736,
			"target":34963
		},
		{
			"buffer":0,
			"byteLength":384,
			"byteOffset":5180,
			"target":34962
		},
		{
			"buffer":0,
			"byteLength":384,
			"byteOffset":5564,
			"target":34962
		},
		{
			"buffer":0,
			"byteLength":256,
			"byteOffset":5948,
			"target":34962
		},
		{
			"buffer":0,
			"byteLength":108,
			"byteOffset":6204,
			"target":34963
		},
		{
			"buffer":0,
			"byteLength":10548,
			"byteOffset":6312,
			"target":34962
		},
		{
			"buffer":0,
			"byteLength":10548,
			"byteOffset":16860,
			"target":34962
		},
		{
			"buffer":0,
			"byteLength":7032,
			"byteOffset":27408,
			"target":34962
		},
		{
			"buffer":0,
			"byteLength":4848,
			"byteOffset":34440,
			"target":34963
		},
		{
			"buffer":0,
			"byteLength":600,
			"byteOffset":39288,
			"target":34962
		},
		{
			"buffer":0,
			"byteLength":600,
			"byteOffset":39888,
			"target":34962
		},
		{
			"buffer":0,
			"byteLength":400,
			"byteOffset":40488,
			"target":34962
		},
		{
			"buffer":0,
			"byteLength":168,
			"byteOffset":40888,
			"target":34963
		},
		{
			"buffer":0,
			"byteLength":204,
			"byteOffset":41056,
			"target":34962
		},
		{
			"buffer":0,
			"byteLength":204,
			"byteOffset":41260,
			"target":34962
		},
		{
			"buffer":0,
			"byteLength":136,
			"byteOffset":41464,
			"target":34962
		},
		{
			"buffer":0,
			"byteLength":78,
			"byteOffset":41600,
			"target":34963
		},
		{
			"buffer":0,
			"byteLength":1224,
			"byteOffset":41680,
			"target":34962
		},
		{
			"buffer":0,
			"byteLength":1224,
			"byteOffset":42904,
			"target":34962
		},
		{
			"buffer":0,
			"byteLength":816,
			"byteOffset":44128,
			"target":34962
		},
		{
			"buffer":0,
			"byteLength":522,
			"byteOffset":44944,
			"target":34963
		},
		{
			"buffer":0,
			"byteLength":972,
			"byteOffset":45468,
			"target":34962
		},
		{
			"buffer":0,
			"byteLength":972,
			"byteOffset":46440,
			"target":34962
		},
		{
			"buffer":0,
			"byteLength":648,
			"byteOffset":47412,
			"target":34962
		},
		{
			"buffer":0,
			"byteLength":648,
			"byteOffset":48060,
			"target":34962
		},
		{
			"buffer":0,
			"byteLength":648,
			"byteOffset":48708,
			"target":34962
		},
		{
			"buffer":0,
			"byteLength":768,
			"byteOffset":49356,
			"target":34963
		},
		{
			"buffer":0,
			"byteLength":972,
			"byteOffset":50124,
			"target":34962
		},
		{
			"buffer":0,
			"byteLength":972,
			"byteOffset":51096,
			"target":34962
		},
		{
			"buffer":0,
			"byteLength":648,
			"byteOffset":52068,
			"target":34962
		},
		{
			"buffer":0,
			"byteLength":648,
			"byteOffset":52716,
			"target":34962
		},
		{
			"buffer":0,
			"byteLength":648,
			"byteOffset":53364,
			"target":34962
		},
		{
			"buffer":0,
			"byteLength":49872,
			"byteOffset":54012,
			"target":34962
		},
		{
			"buffer":0,
			"byteLength":49872,
			"byteOffset":103884,
			"target":34962
		},
		{
			"buffer":0,
			"byteLength":33248,
			"byteOffset":153756,
			"target":34962
		},
		{
			"buffer":0,
			"byteLength":33248,
			"byteOffset":187004,
			"target":34962
		},
		{
			"buffer":0,
			"byteLength":33248,
			"byteOffset":220252,
			"target":34962
		},
		{
			"buffer":0,
			"byteLength":30804,
			"byteOffset":253500,
			"target":34963
		},
		{
			"buffer":0,
			"byteLength":288,
			"byteOffset":284304,
			"target":34962
		},
		{
			"buffer":0,
			"byteLength":288,
			"byteOffset":284592,
			"target":34962
		},
		{
			"buffer":0,
			"byteLength":192,
			"byteOffset":284880,
			"target":34962
		},
		{
			"buffer":0,
			"byteLength":72,
			"byteOffset":285072,
			"target":34963
		}
	],
	"samplers":[
		{
			"magFilter":9729,
			"minFilter":9987
		}
	],
	"buffers":[
		{
			"byteLength":285144,
			"uri":"crt.bin"
		}
	]
}
